# xmcd
#
# Track frame offsets:
#	150
#	19875
#	45950
#	63675
#	82612
#	100462
#	122275
#	135150
#	151950
#
# Disc length: 2197 seconds
#
# Revision: 0
# Processed by: cddbd v1.5.2PL0 Copyright (c) Steve Scherf et al.
# Submitted via: audiograbber 1.83.01
#
DISCID=5f089309
DTITLE=Stan Webb - Stan Webb's Chicken Shack: 39 Bars
DYEAR=1990
DGENRE=Blues
TTITLE0=Runnin' And Hidin'
TTITLE1=I'd Rather Go Blind
TTITLE2=Who Cares
TTITLE3=Ev'ry Little Bit Of My Heart
TTITLE4=Hold On
TTITLE5=A Blues Song
TTITLE6=Tore Down
TTITLE7=Every Day I Have The Blues
TTITLE8=Five Long Years
EXTD=
EXTT0=
EXTT1=
EXTT2=
EXTT3=
EXTT4=
EXTT5=
EXTT6=
EXTT7=
EXTT8=
PLAYORDER=
